<svg width="48" height="48" viewBox="0 0 48 48" fill="none" xmlns="http://www.w3.org/2000/svg">
<rect width="47.1579" height="48" rx="10" fill="#E9ECEF"/>
<path d="M20 26.7963L27.9999 18.9275" stroke="#3445ED" stroke-width="2" stroke-linecap="round" stroke-linejoin="round"/>
<path d="M20.6667 20.2395C21.0348 20.2395 21.3333 19.9458 21.3333 19.5835C21.3333 19.2212 21.0348 18.9275 20.6667 18.9275C20.2985 18.9275 20 19.2212 20 19.5835C20 19.9458 20.2985 20.2395 20.6667 20.2395Z" fill="#3445ED" stroke="#3445ED" stroke-width="2" stroke-linecap="round" stroke-linejoin="round"/>
<path d="M27.3324 26.7964C27.7005 26.7964 27.9988 26.5029 27.9988 26.1408C27.9988 25.7787 27.7005 25.4852 27.3324 25.4852C26.9644 25.4852 26.666 25.7787 26.666 26.1408C26.666 26.5029 26.9644 26.7964 27.3324 26.7964Z" fill="#3445ED" stroke="#3445ED" stroke-width="2" stroke-linecap="round" stroke-linejoin="round"/>
<path d="M14.666 35.9762V14.9928C14.666 14.2972 14.947 13.63 15.4471 13.1381C15.9472 12.6462 16.6254 12.3699 17.3327 12.3699H30.6661C31.3733 12.3699 32.0516 12.6462 32.5517 13.1381C33.0518 13.63 33.3328 14.2972 33.3328 14.9928V35.9762L29.3327 33.3533L26.6661 35.9762L23.9994 33.3533L21.3327 35.9762L18.666 33.3533L14.666 35.9762Z" stroke="#3445ED" stroke-width="2" stroke-linecap="round" stroke-linejoin="round"/>
</svg>
