<svg width="1215" height="29" viewBox="0 0 1215 29" fill="none" xmlns="http://www.w3.org/2000/svg">
<path fill-rule="evenodd" clip-rule="evenodd" d="M47.9602 7.03504C47.9602 8.04404 47.1358 8.85686 46.1124 8.85686C45.089 8.85686 44.2646 8.04404 44.2646 7.03504C44.2646 6.02603 45.0605 5.21321 46.1124 5.21321C47.1642 5.24124 47.9602 6.05405 47.9602 7.03504ZM40.3415 10.7067C40.3415 10.8749 40.3415 11.1552 40.3415 11.1552C40.3415 11.1552 39.4602 10.034 37.584 10.034C34.4854 10.034 32.069 12.3604 32.069 15.5836C32.069 18.7788 34.4569 21.1331 37.584 21.1331C39.4887 21.1331 40.3415 19.984 40.3415 19.984V20.4605C40.3415 20.6847 40.5121 20.8529 40.7395 20.8529H43.0422V10.3143C43.0422 10.3143 40.9385 10.3143 40.7395 10.3143C40.5121 10.3143 40.3415 10.5105 40.3415 10.7067ZM40.3415 17.4615C39.9151 18.0781 39.0623 18.6106 38.0389 18.6106C36.2195 18.6106 34.8265 17.4895 34.8265 15.5836C34.8265 13.6777 36.2195 12.5566 38.0389 12.5566C39.0338 12.5566 39.9435 13.1171 40.3415 13.7057V17.4615ZM44.7478 10.3143H47.4769V20.8529H44.7478V10.3143ZM85.5134 10.034C83.6372 10.034 82.7559 11.1551 82.7559 11.1551V5.24121H80.0269V20.8528C80.0269 20.8528 82.1305 20.8528 82.3295 20.8528C82.5569 20.8528 82.7275 20.6566 82.7275 20.4604V19.984V19.984C82.7275 19.984 83.6088 21.1331 85.485 21.1331C88.5836 21.1331 91 18.7787 91 15.5836C91 12.3884 88.5836 10.034 85.5134 10.034ZM85.0585 18.5826C84.0067 18.5826 83.1823 18.0501 82.7559 17.4335V13.6777C83.1823 13.1172 84.092 12.5286 85.0585 12.5286C86.8779 12.5286 88.2709 13.6497 88.2709 15.5556C88.2709 17.4615 86.8779 18.5826 85.0585 18.5826ZM78.6055 14.6025V20.8808H75.8764V14.9108C75.8764 13.1731 75.3078 12.4724 73.7727 12.4724C72.9483 12.4724 72.0955 12.8928 71.5554 13.5094V20.8528H68.8263V10.3142H70.9868C71.2142 10.3142 71.3848 10.5104 71.3848 10.7066V11.1551C72.1808 10.3422 73.2326 10.0339 74.2844 10.0339C75.4784 10.0339 76.4734 10.3703 77.2694 11.0429C78.2359 11.8277 78.6055 12.8367 78.6055 14.6025ZM62.2025 10.034C60.3263 10.034 59.445 11.1551 59.445 11.1551V5.24121H56.7159V20.8528C56.7159 20.8528 58.8196 20.8528 59.0186 20.8528C59.246 20.8528 59.4166 20.6566 59.4166 20.4604V19.984V19.984C59.4166 19.984 60.2979 21.1331 62.1741 21.1331C65.2727 21.1331 67.6891 18.7787 67.6891 15.5836C67.7175 12.3884 65.3012 10.034 62.2025 10.034ZM61.7477 18.5826C60.6959 18.5826 59.8715 18.0501 59.4451 17.4335V13.6777C59.8715 13.1172 60.7812 12.5286 61.7477 12.5286C63.5671 12.5286 64.9601 13.6497 64.9601 15.5556C64.9601 17.4615 63.5671 18.5826 61.7477 18.5826ZM54.3565 10.034C55.1809 10.034 55.6073 10.1742 55.6073 10.1742V12.6687C55.6073 12.6687 53.3331 11.9119 51.9117 13.5095V20.8809H49.1826V10.3143C49.1826 10.3143 51.2862 10.3143 51.4852 10.3143C51.7127 10.3143 51.8832 10.5105 51.8832 10.7067V11.1552C52.3949 10.5666 53.5036 10.034 54.3565 10.034ZM26.0139 19.8999C25.8717 19.5636 25.7296 19.1992 25.5875 18.8909C25.36 18.3864 25.1326 17.9099 24.9336 17.4615L24.9052 17.4334C22.9437 13.2292 20.84 8.96897 18.6226 4.76476L18.5373 4.5966C18.3099 4.17618 18.0825 3.72773 17.8551 3.27928C17.5708 2.77477 17.2865 2.24224 16.8317 1.73774C15.922 0.616617 14.6143 0 13.2213 0C11.7999 0 10.5207 0.616617 9.58256 1.68168C9.15615 2.18619 8.84344 2.71872 8.55916 3.22322C8.33174 3.67167 8.10431 4.12012 7.87689 4.54054L7.79161 4.70871C5.60266 8.91291 3.47057 13.1732 1.50905 17.3774L1.48062 17.4334C1.28162 17.8819 1.0542 18.3584 0.826777 18.8629C0.684638 19.1712 0.542499 19.5075 0.400359 19.8719C0.0307969 20.9089 -0.0829146 21.8899 0.0592247 22.8989C0.371931 25.001 1.79333 26.7668 3.75485 27.5516C4.49397 27.8599 5.26153 28 6.05751 28C6.28493 28 6.56921 27.972 6.79663 27.9439C7.73475 27.8318 8.7013 27.5235 9.63942 26.991C10.805 26.3463 11.9136 25.4214 13.1645 24.0761C14.4153 25.4214 15.5524 26.3463 16.6895 26.991C17.6277 27.5235 18.5942 27.8318 19.5323 27.9439C19.7597 27.972 20.044 28 20.2714 28C21.0674 28 21.8634 27.8599 22.5741 27.5516C24.5641 26.7668 25.957 24.973 26.2697 22.8989C26.4971 21.9179 26.3834 20.9369 26.0139 19.8999ZM13.1929 21.3573C11.6578 19.4514 10.6628 17.6576 10.3217 16.144C10.1795 15.4994 10.1511 14.9388 10.2364 14.4343C10.2932 13.9859 10.4638 13.5935 10.6912 13.2572C11.2314 12.5004 12.1411 12.0239 13.1929 12.0239C14.2447 12.0239 15.1828 12.4724 15.6945 13.2572C15.922 13.5935 16.0925 13.9859 16.1494 14.4343C16.2347 14.9388 16.2062 15.5274 16.0641 16.144C15.723 17.6295 14.728 19.4233 13.1929 21.3573ZM24.5356 22.6747C24.3366 24.1321 23.3417 25.3934 21.9487 25.954C21.2664 26.2342 20.5273 26.3183 19.7882 26.2342C19.0775 26.1502 18.3668 25.9259 17.6277 25.5055C16.6042 24.9449 15.5808 24.0761 14.3869 22.7868C16.2631 20.5165 17.4002 18.4424 17.8266 16.5926C18.0256 15.7237 18.0541 14.9389 17.9688 14.2102C17.8551 13.5095 17.5992 12.8649 17.2012 12.3043C16.32 11.043 14.8417 10.3143 13.1929 10.3143C11.5441 10.3143 10.0658 11.0711 9.18457 12.3043C8.78658 12.8649 8.53073 13.5095 8.41702 14.2102C8.30331 14.9389 8.33174 15.7518 8.55916 16.5926C8.98558 18.4424 10.1511 20.5445 11.9989 22.8148C10.8334 24.1041 9.78156 24.973 8.75816 25.5335C8.01903 25.954 7.30833 26.1782 6.59764 26.2623C5.83008 26.3464 5.09096 26.2342 4.43712 25.982C3.04415 25.4214 2.04918 24.1602 1.85018 22.7027C1.7649 22.002 1.82175 21.3013 2.10603 20.5165C2.19132 20.2362 2.33346 19.956 2.4756 19.6196C2.67459 19.1712 2.90201 18.6947 3.12944 18.2182L3.15786 18.1622C5.11939 13.986 7.22305 9.72573 9.412 5.57758L9.49728 5.40941C9.7247 4.98899 9.95213 4.54054 10.1796 4.12012C10.407 3.67168 10.6628 3.25125 10.9755 2.88689C11.5725 2.21422 12.3685 1.84985 13.2498 1.84985C14.131 1.84985 14.927 2.21422 15.524 2.88689C15.8367 3.25125 16.0925 3.67168 16.32 4.12012C16.5474 4.54054 16.7748 4.98899 17.0022 5.40941L17.0875 5.57758C19.248 9.75376 21.3517 14.014 23.3132 18.1902V18.2182C23.5407 18.6667 23.7396 19.1712 23.9671 19.6196C24.1092 19.956 24.2513 20.2362 24.3366 20.5165C24.5641 21.2452 24.6493 21.946 24.5356 22.6747Z" fill="#263646"/>
<path fill-rule="evenodd" clip-rule="evenodd" d="M253.696 17.0563V9.33808C253.696 9.11285 253.811 9 254.039 9H256.652V17.1829C256.652 21.493 253.868 23 249.826 23C245.785 23 243 21.493 243 17.1829V9.33808C243 9.11285 243.114 9 243.343 9H245.956V17.0563C245.956 19.6336 247.113 20.704 249.826 20.704C252.54 20.704 253.696 19.6336 253.696 17.0563ZM291.966 11.014C291.895 11.1692 291.795 11.2395 291.581 11.2395H283.627V14.6902H290.267C290.382 14.6902 290.424 14.7463 290.382 14.8591L289.653 16.6339C289.582 16.7888 289.482 16.8589 289.268 16.8589H285.369C284.098 16.8589 283.627 17.2393 283.627 18.0843V20.521H292.609C292.724 20.521 292.766 20.5773 292.724 20.69L291.966 22.5353C291.895 22.69 291.795 22.7605 291.581 22.7605H281.77C281.013 22.7605 280.728 22.507 280.728 21.9435V9.95771C280.728 9.29579 281.099 9 282.084 9H292.609C292.724 9 292.766 9.05654 292.724 9.16893L291.966 11.014ZM274.666 12.493C274.666 13.8028 274.195 14.9154 273.053 15.507C274.624 15.9154 275.338 17.3098 275.338 18.9577C275.338 21.7042 273.367 22.7605 270.611 22.7605H263.299C262.542 22.7605 262.257 22.507 262.257 21.9435V9.95771C262.257 9.29579 262.628 9 263.613 9H269.554C272.153 9 274.666 9.4507 274.666 12.493ZM265.154 11.2112H269.768C271.31 11.2112 271.739 11.7842 271.739 12.9717C271.739 14.1595 271.31 14.7325 269.768 14.7325H265.154V11.2112ZM270.311 20.5493H265.154V18.028C265.154 17.1829 265.625 16.8028 266.897 16.8028H270.311C271.953 16.8028 272.41 17.4224 272.41 18.6902C272.41 19.9577 271.953 20.5493 270.311 20.5493ZM310.966 22.521L307.839 17.2252C309.395 16.8311 310.652 15.8171 310.652 13.2395C310.652 9.90163 308.553 9 305.083 9H299.113C298.128 9 297.757 9.29579 297.757 9.95771V22.4224C297.757 22.6477 297.871 22.7605 298.099 22.7605H300.656V18.7465C300.656 17.9014 301.127 17.521 302.398 17.521H304.968L307.796 22.5353C307.882 22.6759 307.967 22.7605 308.181 22.7605H310.838C311.024 22.7605 311.024 22.6054 310.966 22.521ZM305.511 15.3801H300.656V11.2114H305.511C307.325 11.2114 307.725 11.9014 307.725 13.2958C307.725 14.7042 307.325 15.3801 305.511 15.3801Z" fill="#263646"/>
<path fill-rule="evenodd" clip-rule="evenodd" d="M476.902 13.1046V15.2249L481.99 15.2226C481.834 16.3921 481.438 17.2483 480.836 17.8477C480.094 18.5868 478.936 19.4002 476.902 19.4002C473.767 19.4002 471.314 16.8833 471.314 13.7603C471.314 10.6372 473.767 8.12032 476.902 8.12032C478.594 8.12032 479.83 8.78278 480.741 9.63452L482.243 8.13835C480.972 6.92835 479.28 6 476.904 6C472.611 6 469 9.48355 469 13.7603C469 18.037 472.611 21.5205 476.904 21.5205C479.221 21.5205 480.97 20.7634 482.338 19.3438C483.746 17.9423 484.182 15.9752 484.182 14.3844C484.182 13.9112 484.146 13.4741 484.076 13.1046H476.902ZM519.82 21.2163V6.57007H517.67V21.2163H519.82ZM495.104 16.525C495.104 19.4024 492.844 21.5227 490.071 21.5227C487.297 21.5227 485.037 19.4024 485.037 16.525C485.037 13.6273 487.297 11.5272 490.071 11.5272C492.844 11.5272 495.104 13.6273 495.104 16.525ZM492.901 16.525C492.901 14.7269 491.591 13.4966 490.071 13.4966C488.551 13.4966 487.241 14.7269 487.241 16.525C487.241 18.305 488.551 19.5534 490.071 19.5534C491.591 19.5534 492.901 18.3028 492.901 16.525ZM505.963 16.525C505.963 19.4024 503.703 21.5228 500.93 21.5228C498.156 21.5228 495.896 19.4024 495.896 16.525C495.896 13.6296 498.156 11.5273 500.93 11.5273C503.703 11.5273 505.963 13.6273 505.963 16.525ZM503.76 16.525C503.76 14.7269 502.45 13.4966 500.93 13.4966C499.409 13.4966 498.1 14.7269 498.1 16.525C498.1 18.3051 499.409 19.5534 500.93 19.5534C502.45 19.5534 503.76 18.3028 503.76 16.525ZM516.37 20.8018V11.8315H514.277V12.645H514.2C513.705 12.0569 512.755 11.5273 511.558 11.5273C509.049 11.5273 506.75 13.722 506.75 16.5431C506.75 19.3439 509.049 21.5206 511.558 21.5206C512.757 21.5206 513.707 20.9911 514.2 20.3849H514.277V21.1037C514.277 23.0168 513.252 24.033 511.599 24.033C510.25 24.033 509.413 23.0731 509.072 22.2597L507.153 23.0551C507.705 24.38 509.169 26.0001 511.601 26.0001C514.184 26.0001 516.37 24.4926 516.37 20.8018ZM511.755 13.4967C513.255 13.4967 514.433 14.7833 514.433 16.5431C514.433 18.2849 513.255 19.5535 511.755 19.5535C510.234 19.5535 508.961 18.2849 508.961 16.5431C508.961 14.7833 510.234 13.4967 511.755 13.4967ZM529.905 19.3054L528.195 18.1698C527.625 19.0035 526.846 19.5533 525.724 19.5533C524.605 19.5533 523.806 19.0418 523.292 18.0391L530 15.2721L529.772 14.7043C529.355 13.5889 528.082 11.5249 525.478 11.5249C522.892 11.5249 520.745 13.5506 520.745 16.5226C520.745 19.3257 522.874 21.5204 525.724 21.5204C528.023 21.5204 529.353 20.1189 529.905 19.3054ZM527.414 14.5172L522.93 16.3717C522.874 14.4429 524.433 13.4582 525.552 13.4582C526.426 13.4582 527.168 13.8931 527.414 14.5172Z" fill="#263646"/>
<path fill-rule="evenodd" clip-rule="evenodd" d="M687.736 25.9923C686.187 25.9292 684.919 25.4945 683.928 24.6872C683.739 24.533 683.288 24.0706 683.137 23.8756C682.735 23.3574 682.461 22.8531 682.279 22.2936C681.718 20.5714 682.007 18.3113 683.105 15.831C684.045 13.7075 685.495 11.6014 688.026 8.68449C688.398 8.25527 689.508 7 689.516 7C689.518 7 689.458 7.10744 689.382 7.23827C688.724 8.36815 688.161 9.69904 687.854 10.8512C687.361 12.7 687.421 14.2866 688.028 15.5168C688.447 16.3644 689.165 17.0985 689.973 17.5043C691.387 18.2145 693.457 18.2732 695.984 17.6762C696.158 17.6349 704.782 15.2878 715.149 12.4604C725.516 9.63267 733.999 7.32096 734 7.32286C734.003 7.32531 709.916 17.8924 697.411 23.3746C695.431 24.2425 694.902 24.4617 693.971 24.7968C691.591 25.6536 689.459 26.0625 687.736 25.9923Z" fill="#263646"/>
<path fill-rule="evenodd" clip-rule="evenodd" d="M893.05 14L900.1 9.5L907.15 13.9625L900.1 18.4625L907.112 23L914.163 18.5L907.112 14L914.163 9.5L907.112 5L900.1 9.5L893.05 5L886 9.5L893.05 13.9625L886 18.4625L893.05 23L900.1 18.5L893.05 14ZM900.062 19.925L893.013 24.425L900.062 28.925L907.112 24.425L900.062 19.925ZM925.375 9.5H919.675V24.425H925.487C929.2 24.425 932.012 22.25 932.012 17.4125V16.4C932.012 11.6 929.012 9.5 925.375 9.5ZM922.862 21.6875V12.2H925.187C927.287 12.2 928.75 13.55 928.75 16.55V17.3375C928.75 20.3375 927.362 21.6875 925.3 21.6875H922.862ZM936.25 12.35H933.738V24.4625H936.888V18.9125C936.888 16.3625 937.525 15.4625 940.113 15.4625H941.425V12.2375H940.638C938.388 12.2375 937.15 13.25 936.663 15.1625L936.25 12.35ZM942.062 18.3125V18.65C942.062 22.625 944.275 24.725 948.175 24.7625C951.85 24.7625 954.288 22.625 954.288 18.65V18.3125C954.288 14.2625 951.775 12.05 948.175 12.05C944.65 12.05 942.062 14.2625 942.062 18.3125ZM951.062 18.3124V18.6124C951.062 20.7874 949.937 21.9874 948.137 22.0249C946.337 22.0249 945.212 20.7874 945.212 18.6124V18.3124C945.212 15.9499 946.375 14.7124 948.137 14.7124C949.937 14.7124 951.062 16.0624 951.062 18.3124ZM958.562 12.35H955.937L955.9 28.625H958.975V22.5125C959.612 23.9 960.925 24.7625 962.837 24.7625C965.687 24.7625 967.937 22.6625 967.937 18.6875V18.35C967.937 14.2625 965.912 12.05 962.837 12.05C960.85 12.05 959.5 13.1 958.862 14.6375L958.562 12.35ZM964.75 18.35V18.6125C964.75 20.8625 963.625 22.025 961.825 22.0625C960.062 22.0625 958.937 20.7125 958.937 18.575V18.35C958.937 16.1 960.1 14.75 961.862 14.75C963.512 14.75 964.75 15.95 964.75 18.35ZM972.325 24.425L972.587 22.2125C973.225 23.7875 974.537 24.725 976.562 24.7625C979.637 24.7625 981.662 22.475 981.662 18.4625V18.0875C981.662 14.075 979.525 12.0875 976.637 12.05C974.725 12.05 973.375 12.9125 972.7 14.4875V8.30005H969.625V24.425H972.325ZM978.437 18.1625V18.4625C978.437 20.8625 977.35 22.025 975.512 22.025C973.787 22.025 972.625 20.7125 972.625 18.4625V18.2C972.625 16.1 973.825 14.7125 975.55 14.7125C977.237 14.7125 978.437 15.95 978.437 18.1625ZM983.012 18.3125V18.65C983.012 22.625 985.225 24.725 989.125 24.7625C992.762 24.7625 995.237 22.625 995.237 18.65V18.3125C995.237 14.2625 992.725 12.05 989.125 12.05C985.6 12.05 983.012 14.2625 983.012 18.3125ZM989.125 14.7125C990.925 14.7125 992.05 16.0625 992.05 18.3125V18.6125C992.05 20.7875 990.925 21.9875 989.125 22.025C987.325 22.025 986.2 20.7875 986.2 18.6125V18.3125C986.2 15.95 987.362 14.7125 989.125 14.7125ZM995.125 12.35L999.362 18.1625L994.75 24.425H998.462L1001.16 20.4125L1003.94 24.425H1007.5L1002.96 18.125L1007.27 12.35H1003.67L1001.2 15.9875L998.762 12.35H995.125Z" fill="#263646"/>
<path fill-rule="evenodd" clip-rule="evenodd" d="M1162.91 13.4045C1162.91 12.7798 1163.4 12.5394 1164.22 12.5394C1165.4 12.5394 1166.88 12.908 1168.06 13.5648V9.7997C1166.77 9.27104 1165.51 9.06274 1164.22 9.06274C1161.09 9.06274 1159 10.7611 1159 13.5969C1159 18.0187 1164.87 17.3138 1164.87 19.2205C1164.87 19.9573 1164.25 20.1977 1163.39 20.1977C1162.11 20.1977 1160.47 19.6529 1159.17 18.916V22.7291C1160.61 23.3699 1162.06 23.6422 1163.39 23.6422C1166.6 23.6422 1168.81 21.9921 1168.81 19.1243C1168.8 14.3499 1162.91 15.1989 1162.91 13.4045ZM1173.36 5.8584L1169.59 6.69145L1169.57 19.5246C1169.57 21.8959 1171.29 23.6421 1173.57 23.6421C1174.84 23.6421 1175.77 23.4018 1176.28 23.1134V19.8611C1175.78 20.0694 1173.34 20.8064 1173.34 18.4352V12.7476H1176.28V9.33502H1173.34L1173.36 5.8584ZM1181.08 10.5207L1180.84 9.33514H1177.5V23.3538H1181.36V13.8532C1182.27 12.6196 1183.82 12.8439 1184.3 13.0201V9.33514C1183.8 9.14284 1182 8.79036 1181.08 10.5207ZM1185.24 9.33514H1189.12V23.3538H1185.24V9.33514V9.33514ZM1185.24 8.11749L1189.12 7.25234V4L1185.24 4.84916V8.11738V8.11749ZM1197.19 9.06275C1195.67 9.06275 1194.7 9.79971 1194.16 10.3125L1193.96 9.31914H1190.56V28L1194.42 27.151L1194.44 22.6169C1194.99 23.0335 1195.81 23.6262 1197.17 23.6262C1199.94 23.6262 1202.46 21.3191 1202.46 16.2404C1202.44 11.5941 1199.89 9.06275 1197.19 9.06275V9.06275ZM1196.26 20.1015C1195.35 20.1015 1194.81 19.7651 1194.44 19.3485L1194.42 13.4045C1194.82 12.94 1195.38 12.6196 1196.26 12.6196C1197.67 12.6196 1198.64 14.2537 1198.64 16.3525C1198.64 18.4994 1197.68 20.1015 1196.26 20.1015V20.1015ZM1214.64 16.4006C1214.64 12.2991 1212.72 9.06275 1209.06 9.06275C1205.38 9.06275 1203.15 12.2992 1203.15 16.3686C1203.15 21.1909 1205.78 23.6262 1209.55 23.6262C1211.39 23.6262 1212.78 23.1936 1213.83 22.5849V19.3805C1212.78 19.9253 1211.58 20.2618 1210.05 20.2618C1208.55 20.2618 1207.22 19.717 1207.05 17.8265H1214.61C1214.61 17.6181 1214.64 16.7851 1214.64 16.4006ZM1207 14.8786C1207 13.0682 1208.07 12.3151 1209.04 12.3151C1209.98 12.3151 1210.99 13.0682 1210.99 14.8786H1207Z" fill="#263646"/>
</svg>
