<svg width="68" height="40" viewBox="0 0 68 40" fill="none" xmlns="http://www.w3.org/2000/svg">
<path d="M65.3105 11L58.6552 17.8328L51.9999 11" stroke="#3445ED" stroke-width="4" stroke-linecap="round" stroke-linejoin="round"/>
<path d="M52 30.5L58.6553 23.6672L65.3106 30.5" stroke="#3445ED" stroke-width="4" stroke-linecap="round" stroke-linejoin="round"/>
<path d="M18.375 23.4844C18.375 24.7969 18.151 25.9948 17.7031 27.0781C17.2552 28.1615 16.6458 29.0938 15.875 29.875C15.1042 30.6458 14.1979 31.2448 13.1562 31.6719C12.125 32.099 11.0156 32.3125 9.82812 32.3125C8.65104 32.3125 7.54167 32.0938 6.5 31.6562C5.46875 31.2188 4.5625 30.6094 3.78125 29.8281C3.01042 29.0469 2.40104 28.1198 1.95312 27.0469C1.50521 25.9635 1.28125 24.776 1.28125 23.4844V8.60938H5.5625V16.4219C5.79167 16.1302 6.06771 15.8698 6.39062 15.6406C6.72396 15.4115 7.07812 15.224 7.45312 15.0781C7.83854 14.9323 8.23438 14.8229 8.64062 14.75C9.04688 14.6667 9.44271 14.625 9.82812 14.625C11.0156 14.625 12.125 14.849 13.1562 15.2969C14.1979 15.7344 15.1042 16.349 15.875 17.1406C16.6458 17.9323 17.2552 18.8698 17.7031 19.9531C18.151 21.026 18.375 22.2031 18.375 23.4844ZM14.0781 23.4844C14.0781 22.8385 13.9635 22.2396 13.7344 21.6875C13.5156 21.125 13.2135 20.6406 12.8281 20.2344C12.4427 19.8281 11.9896 19.5104 11.4688 19.2812C10.9583 19.0521 10.4115 18.9375 9.82812 18.9375C9.24479 18.9375 8.69271 19.0677 8.17188 19.3281C7.66146 19.5781 7.21354 19.9167 6.82812 20.3438C6.44271 20.7604 6.14062 21.2448 5.92188 21.7969C5.70312 22.3385 5.59375 22.901 5.59375 23.4844C5.59375 24.1302 5.70312 24.7292 5.92188 25.2812C6.14062 25.8333 6.44271 26.3125 6.82812 26.7188C7.21354 27.125 7.66146 27.4479 8.17188 27.6875C8.69271 27.9167 9.24479 28.0312 9.82812 28.0312C10.4115 28.0312 10.9583 27.9167 11.4688 27.6875C11.9896 27.4479 12.4427 27.125 12.8281 26.7188C13.2135 26.3125 13.5156 25.8333 13.7344 25.2812C13.9635 24.7292 14.0781 24.1302 14.0781 23.4844ZM25.0469 32H20.75V8.60938H25.0469V32ZM44.4844 23.4844C44.4844 24.7344 44.2604 25.901 43.8125 26.9844C43.3646 28.0573 42.7552 28.9896 41.9844 29.7812C41.2135 30.5625 40.3073 31.1823 39.2656 31.6406C38.2344 32.0885 37.125 32.3125 35.9375 32.3125C34.7604 32.3125 33.651 32.0885 32.6094 31.6406C31.5781 31.1823 30.6719 30.5625 29.8906 29.7812C29.1198 28.9896 28.5104 28.0573 28.0625 26.9844C27.6146 25.901 27.3906 24.7344 27.3906 23.4844C27.3906 22.2135 27.6146 21.0365 28.0625 19.9531C28.5104 18.8698 29.1198 17.9375 29.8906 17.1562C30.6719 16.3646 31.5781 15.7448 32.6094 15.2969C33.651 14.849 34.7604 14.625 35.9375 14.625C37.125 14.625 38.2344 14.8385 39.2656 15.2656C40.3073 15.6823 41.2135 16.2812 41.9844 17.0625C42.7552 17.8333 43.3646 18.7656 43.8125 19.8594C44.2604 20.9427 44.4844 22.151 44.4844 23.4844ZM40.1875 23.4844C40.1875 22.7969 40.0729 22.1771 39.8438 21.625C39.625 21.0625 39.3229 20.5833 38.9375 20.1875C38.5521 19.7812 38.099 19.474 37.5781 19.2656C37.0677 19.0469 36.5208 18.9375 35.9375 18.9375C35.3542 18.9375 34.8021 19.0469 34.2812 19.2656C33.7708 19.474 33.3229 19.7812 32.9375 20.1875C32.5625 20.5833 32.2656 21.0625 32.0469 21.625C31.8281 22.1771 31.7188 22.7969 31.7188 23.4844C31.7188 24.1302 31.8281 24.7292 32.0469 25.2812C32.2656 25.8333 32.5625 26.3125 32.9375 26.7188C33.3229 27.125 33.7708 27.4479 34.2812 27.6875C34.8021 27.9167 35.3542 28.0312 35.9375 28.0312C36.5208 28.0312 37.0677 27.9219 37.5781 27.7031C38.099 27.4844 38.5521 27.1771 38.9375 26.7812C39.3229 26.3854 39.625 25.9062 39.8438 25.3438C40.0729 24.7812 40.1875 24.1615 40.1875 23.4844Z" fill="#212529"/>
</svg>
